<svg width="21" height="21" viewBox="0 0 21 21" fill="none" xmlns="http://www.w3.org/2000/svg">
<g filter="url(#filter0_i_637_352)">
<path d="M13.6646 1C14.5047 1 15.3103 1.33362 15.9043 1.92747C16.4983 2.52132 16.832 3.32676 16.832 4.16659C17.3528 4.16648 17.8657 4.29479 18.3251 4.54016C18.7845 4.78553 19.1763 5.14038 19.4658 5.57328C19.7553 6.00619 19.9335 6.50379 19.9847 7.022C20.0359 7.54021 19.9584 8.06305 19.7592 8.5442C19.56 9.02535 19.2452 9.44996 18.8427 9.78042C18.4401 10.1109 17.9623 10.337 17.4515 10.4387C16.9407 10.5405 16.4126 10.5147 15.9142 10.3637C15.4157 10.2127 14.9621 9.94111 14.5937 9.57301L9.57031 14.5952C9.93286 14.958 10.2019 15.4033 10.3542 15.893C10.5065 16.3827 10.5376 16.902 10.4448 17.4064C10.352 17.9107 10.1381 18.385 9.82139 18.7884C9.50472 19.1918 9.09479 19.5123 8.62684 19.7223C8.1589 19.9323 7.64694 20.0255 7.13498 19.994C6.62302 19.9625 6.12638 19.8071 5.68776 19.5413C5.24913 19.2754 4.88165 18.9071 4.6169 18.4678C4.35216 18.0286 4.19806 17.5317 4.16788 17.0198V16.8329H3.98206C3.46983 16.8029 2.97256 16.649 2.53304 16.3843C2.09351 16.1196 1.72489 15.7521 1.45888 15.3134C1.19287 14.8748 1.03744 14.3781 1.00597 13.866C0.97449 13.354 1.06791 12.842 1.27818 12.3741C1.48846 11.9062 1.8093 11.4963 2.21309 11.1798C2.61689 10.8633 3.09155 10.6496 3.59625 10.5571C4.10095 10.4646 4.62057 10.4961 5.1104 10.6488C5.60024 10.8015 6.04562 11.071 6.40824 11.4339L11.4317 6.4117C10.9885 5.96897 10.6867 5.4048 10.5643 4.79055C10.4419 4.1763 10.5044 3.53956 10.744 2.96085C10.9836 2.38214 11.3895 1.88746 11.9103 1.53937C12.4311 1.19128 13.0434 1.00541 13.6699 1.00528L13.6646 1Z" fill="#FFE481"/>
</g>
<path d="M13.6646 1C14.5047 1 15.3103 1.33362 15.9043 1.92747C16.4983 2.52132 16.832 3.32676 16.832 4.16659C17.3528 4.16648 17.8657 4.29479 18.3251 4.54016C18.7845 4.78553 19.1763 5.14038 19.4658 5.57328C19.7553 6.00619 19.9335 6.50379 19.9847 7.022C20.0359 7.54021 19.9584 8.06305 19.7592 8.5442C19.56 9.02535 19.2452 9.44996 18.8427 9.78042C18.4401 10.1109 17.9623 10.337 17.4515 10.4387C16.9407 10.5405 16.4126 10.5147 15.9142 10.3637C15.4157 10.2127 14.9621 9.94111 14.5937 9.57301L9.57031 14.5952C9.93286 14.958 10.2019 15.4033 10.3542 15.893C10.5065 16.3827 10.5376 16.902 10.4448 17.4064C10.352 17.9107 10.1381 18.385 9.82139 18.7884C9.50472 19.1918 9.09479 19.5123 8.62684 19.7223C8.1589 19.9323 7.64694 20.0255 7.13498 19.994C6.62302 19.9625 6.12638 19.8071 5.68776 19.5413C5.24913 19.2754 4.88165 18.9071 4.6169 18.4678C4.35216 18.0286 4.19806 17.5317 4.16788 17.0198V16.8329H3.98206C3.46983 16.8029 2.97256 16.649 2.53304 16.3843C2.09351 16.1196 1.72489 15.7521 1.45888 15.3134C1.19287 14.8748 1.03744 14.3781 1.00597 13.866C0.97449 13.354 1.06791 12.842 1.27818 12.3741C1.48846 11.9062 1.8093 11.4963 2.21309 11.1798C2.61689 10.8633 3.09155 10.6496 3.59625 10.5571C4.10095 10.4646 4.62057 10.4961 5.1104 10.6488C5.60024 10.8015 6.04562 11.071 6.40824 11.4339L11.4317 6.4117C10.9885 5.96897 10.6867 5.4048 10.5643 4.79055C10.4419 4.1763 10.5044 3.53956 10.744 2.96085C10.9836 2.38214 11.3895 1.88746 11.9103 1.53937C12.4311 1.19128 13.0434 1.00541 13.6699 1.00528L13.6646 1Z" stroke="#E8CD6A" stroke-width="2" stroke-linecap="round" stroke-linejoin="round"/>
<defs>
<filter id="filter0_i_637_352" x="0" y="0" width="21" height="25" filterUnits="userSpaceOnUse" color-interpolation-filters="sRGB">
<feFlood flood-opacity="0" result="BackgroundImageFix"/>
<feBlend mode="normal" in="SourceGraphic" in2="BackgroundImageFix" result="shape"/>
<feColorMatrix in="SourceAlpha" type="matrix" values="0 0 0 0 0 0 0 0 0 0 0 0 0 0 0 0 0 0 127 0" result="hardAlpha"/>
<feOffset dy="4"/>
<feGaussianBlur stdDeviation="2"/>
<feComposite in2="hardAlpha" operator="arithmetic" k2="-1" k3="1"/>
<feColorMatrix type="matrix" values="0 0 0 0 0.991625 0 0 0 0 0.783456 0 0 0 0 0.0786044 0 0 0 1 0"/>
<feBlend mode="normal" in2="shape" result="effect1_innerShadow_637_352"/>
</filter>
</defs>
</svg>
